<svg id="Layer_1" data-name="Layer 1" xmlns="http://www.w3.org/2000/svg" viewBox="0 0 2024 512"><defs><style>.cls-1{fill:#d32f2f;}.cls-2{fill:#283593;}.cls-3{fill:#fff;}</style></defs><title>logo</title><rect class="cls-1" x="1243" y="93" width="728" height="326" rx="85" ry="85"/><path class="cls-2" d="M230.52,342.12a1.31,1.31,0,0,1,.37,1.73,1.44,1.44,0,0,1-1.49,1H201a1.3,1.3,0,0,1-1.11-.49l-73.06-68.48v67.36a1.42,1.42,0,0,1-1.61,1.61H105.82a1.42,1.42,0,0,1-1.61-1.61V169a1.42,1.42,0,0,1,1.61-1.61h19.44a1.42,1.42,0,0,1,1.61,1.61v65.88L194,168a1.54,1.54,0,0,1,1.11-.5h27.49a1.44,1.44,0,0,1,1.49,1,1.38,1.38,0,0,1-.25,1.73l-85.56,85.32Z"/><path class="cls-2" d="M330.44,290.73q-.13,4.34-.12,6.44,0,10.78,1.49,25.88.49,5.57,1.24,11.39.49,4.34,1.11,8.54.25,1.86-1.61,1.86H314.72a1.48,1.48,0,0,1-1.61-1.36q-.62-4.58-1.11-9.29-12.63,10.53-30,10.53-17.83,0-27.86-9.16t-10-25.63q0-14.61,10.53-23.9,16-14.24,54.73-11.76-.87-11-5.08-15.35-4.34-4.58-15.23-4.58a38.49,38.49,0,0,0-15,2.85,31.38,31.38,0,0,0-4.71,2.35,28.45,28.45,0,0,0-2.85,2,1.36,1.36,0,0,1-2.1,0l-13.13-12a1.43,1.43,0,0,1,0-2.35,17.14,17.14,0,0,1,1.86-1.61,23.73,23.73,0,0,1,2.72-2.11,54.76,54.76,0,0,1,7.8-4.46,58.59,58.59,0,0,1,25.38-5.45q19.69,0,30.21,10.77,7.31,7.55,9.78,20.06,1.73,8.3,1.49,22.29v2S330.53,289.33,330.44,290.73ZM282,323.92a29,29,0,0,0,7.06-.87,26.32,26.32,0,0,0,8.3-3.84q9.91-7.18,11.89-24-5.57-.37-10.65-.37-22.41,0-30.21,6.93a10.37,10.37,0,0,0-3.34,8.17q0,6.69,2.6,9.66Q271.5,323.92,282,323.92Z"/><path class="cls-2" d="M447,323.92a1.42,1.42,0,0,1,1.61,1.61v17.71a1.42,1.42,0,0,1-1.61,1.61H357.44a1.42,1.42,0,0,1-1.61-1.61V326.15a1.54,1.54,0,0,1,.5-1.12L418,254.33H359.42a1.42,1.42,0,0,1-1.61-1.61V235a1.42,1.42,0,0,1,1.61-1.61H446a1.42,1.42,0,0,1,1.61,1.61v16.47a1.81,1.81,0,0,1-.37,1.12l-62.16,71.32Z"/><path class="cls-2" d="M489.31,213.22a11.46,11.46,0,0,1-8.42-3.47,11.66,11.66,0,0,1-3.59-8.54,11.27,11.27,0,0,1,3.59-8.42,11.89,11.89,0,0,1,20.31,8.42,11.88,11.88,0,0,1-3.47,8.54A11.46,11.46,0,0,1,489.31,213.22Zm8.79,20.43a1.42,1.42,0,0,1,1.61,1.61v108a1.42,1.42,0,0,1-1.61,1.61H480.52a1.42,1.42,0,0,1-1.61-1.61v-108a1.42,1.42,0,0,1,1.61-1.61Z"/><path class="cls-1" d="M662.18,342.12a1.31,1.31,0,0,1,.37,1.73,1.44,1.44,0,0,1-1.49,1H632.71a1.3,1.3,0,0,1-1.11-.49l-73.06-68.48v67.36a1.42,1.42,0,0,1-1.61,1.61H537.48a1.42,1.42,0,0,1-1.61-1.61V169a1.42,1.42,0,0,1,1.61-1.61h19.44a1.42,1.42,0,0,1,1.61,1.61v65.88L625.65,168a1.54,1.54,0,0,1,1.11-.5h27.49a1.44,1.44,0,0,1,1.49,1,1.38,1.38,0,0,1-.25,1.73l-85.56,85.32Z"/><path class="cls-1" d="M686.32,344.85a1.42,1.42,0,0,1-1.61-1.61V168.76a1.42,1.42,0,0,1,1.61-1.61H704.4a1.42,1.42,0,0,1,1.61,1.61V343.24a1.42,1.42,0,0,1-1.61,1.61Z"/><path class="cls-1" d="M753.31,213.22a11.46,11.46,0,0,1-8.42-3.47,11.66,11.66,0,0,1-3.59-8.54,11.27,11.27,0,0,1,3.59-8.42,11.89,11.89,0,0,1,20.31,8.42,11.88,11.88,0,0,1-3.47,8.54A11.46,11.46,0,0,1,753.31,213.22Zm8.79,20.43a1.42,1.42,0,0,1,1.61,1.61v108a1.42,1.42,0,0,1-1.61,1.61H744.52a1.42,1.42,0,0,1-1.61-1.61v-108a1.42,1.42,0,0,1,1.61-1.61Z"/><path class="cls-1" d="M882.47,233.28a1.65,1.65,0,0,1,1.11,2.85L840,277.73,893.36,342a1.5,1.5,0,0,1,.12,1.73,1.36,1.36,0,0,1-1.36,1h-23.4a1.33,1.33,0,0,1-1.24-.62l-42.84-51.64-5.32,5.08v45.57a1.42,1.42,0,0,1-1.61,1.61h-18a1.42,1.42,0,0,1-1.61-1.61V168.76a1.42,1.42,0,0,1,1.61-1.61h18a1.42,1.42,0,0,1,1.61,1.61v99.31l36-34.3a1.31,1.31,0,0,1,1.11-.5Z"/><path class="cls-1" d="M998,233.28a1.65,1.65,0,0,1,1.11,2.85l-43.59,41.61L1008.89,342a1.5,1.5,0,0,1,.12,1.73,1.36,1.36,0,0,1-1.36,1h-23.4a1.33,1.33,0,0,1-1.24-.62l-42.84-51.64-5.32,5.08v45.57a1.42,1.42,0,0,1-1.61,1.61h-18a1.42,1.42,0,0,1-1.61-1.61V168.76a1.42,1.42,0,0,1,1.61-1.61h18a1.42,1.42,0,0,1,1.61,1.61v99.31l36-34.3a1.31,1.31,0,0,1,1.11-.5Z"/><path class="cls-1" d="M1069.2,233.65q22.16.13,37.77,16.35a53.24,53.24,0,0,1,15.6,38.39v7.06a1.44,1.44,0,0,1-1.49,1.61l-81.73,7.06a34.57,34.57,0,0,0,31.33,19.81,34.64,34.64,0,0,0,16.72-4.21A34,34,0,0,0,1100,307.95a1.51,1.51,0,0,1,2.23-.62l15.23,8.92a1.39,1.39,0,0,1,.62,2.23,56,56,0,0,1-47.43,26.38q-22.91,0-39.25-16.35a53.26,53.26,0,0,1-16.35-39.25q0-23.53,15.73-39.63T1069.2,233.65Zm31.33,44.21a29.53,29.53,0,0,0-11.27-17q-8.54-6.44-20.43-6.44a31,31,0,0,0-21.55,8.17,33.33,33.33,0,0,0-10.9,20.8Z"/><path class="cls-1" d="M1174.08,241a44.71,44.71,0,0,1,31.33-6.31,1.44,1.44,0,0,1,1.36,1.86l-3.59,17.34a1.47,1.47,0,0,1-1.86,1.24,21.86,21.86,0,0,0-3.34-.25,23,23,0,0,0-16,6.19,23.45,23.45,0,0,0-7.92,15.11v67.12a1.42,1.42,0,0,1-1.61,1.61h-18a1.42,1.42,0,0,1-1.61-1.61V234.76a1.42,1.42,0,0,1,1.61-1.61h18a1.42,1.42,0,0,1,1.61,1.61Z"/><path class="cls-3" d="M1324.92,337.91a89.58,89.58,0,0,1-47.3-47.3,89.53,89.53,0,0,1,0-69.1,90.69,90.69,0,0,1,19.07-28.23,88.91,88.91,0,0,1,28.23-18.95,88.08,88.08,0,0,1,69.1,0,88,88,0,0,1,47.18,47.18,88.08,88.08,0,0,1,0,69.1,88.91,88.91,0,0,1-18.95,28.23A90.68,90.68,0,0,1,1394,337.91a89.54,89.54,0,0,1-69.1,0Zm4.58-152.8a77,77,0,1,0,30-6.07A75.87,75.87,0,0,0,1329.5,185.11Z"/><path class="cls-3" d="M1569.85,343.11a1.53,1.53,0,0,1-1.73,1.73h-8.3a1.53,1.53,0,0,1-1.73-1.73V339q.12-10.89.12-27.24V298.54q.12-7.92.12-14.61v-3.84q0-1.86-.12-3.34a30.21,30.21,0,0,0-1.49-6.56,31,31,0,0,0-18.45-19.32,33.26,33.26,0,0,0-6.56-1.61l-.87-.12-.74-.12-.74-.12h-4.21a29.85,29.85,0,0,0-12,3.22,30.72,30.72,0,0,0-9,6.81,31.8,31.8,0,0,0-5.32,7.8,38.79,38.79,0,0,0-2.48,6.93q-.25,1.37-.37,2.72l-.12,1.12-.12.87v1.86l-.12,2.72v60.18a1.53,1.53,0,0,1-1.73,1.73h-8.3q-1.61,0-1.61-1.73V238.6q0-1.73,1.61-1.73h8.3a1.53,1.53,0,0,1,1.73,1.73v14.12l.74-1a45.86,45.86,0,0,1,11.89-9.16,42.92,42.92,0,0,1,16.22-4.46l1.11-.12h4.33l1.11.13,1.24.12,1.11.13a39.38,39.38,0,0,1,8.79,2.23,41.27,41.27,0,0,1,15.6,10.15,40.31,40.31,0,0,1,9.66,15.85,41.06,41.06,0,0,1,2,8.91q.25,2.11.37,4.46v31.82q.12,16.34.12,27.24Z"/><path class="cls-3" d="M1616.16,344.85a1.53,1.53,0,0,1-1.73-1.73V168.89c0-1.07.58-1.61,1.73-1.61h8.3a1.42,1.42,0,0,1,1.61,1.61V343.11q0,1.73-1.61,1.73Z"/><path class="cls-3" d="M1668.17,209a8.11,8.11,0,0,1-5.94,2.48,7.84,7.84,0,0,1-5.94-2.48,8.37,8.37,0,0,1,0-11.89,7.85,7.85,0,0,1,5.94-2.48,8.41,8.41,0,0,1,5.94,14.37ZM1658,344.85q-1.61,0-1.61-1.73V239.22q0-1.73,1.61-1.73h8.3a1.53,1.53,0,0,1,1.73,1.73V343.11a1.53,1.53,0,0,1-1.73,1.73Z"/><path class="cls-3" d="M1793.24,343.11a1.53,1.53,0,0,1-1.73,1.73h-8.3a1.53,1.53,0,0,1-1.73-1.73V339q.12-10.89.12-27.24V298.54q.12-7.92.12-14.61v-3.84q0-1.86-.12-3.34a30.21,30.21,0,0,0-1.49-6.56,31,31,0,0,0-18.45-19.32,33.26,33.26,0,0,0-6.56-1.61l-.87-.12-.74-.12-.74-.12h-4.21a29.85,29.85,0,0,0-12,3.22,30.72,30.72,0,0,0-9,6.81,31.8,31.8,0,0,0-5.32,7.8,38.79,38.79,0,0,0-2.48,6.93q-.25,1.37-.37,2.72l-.12,1.12-.12.87v1.86l-.12,2.72v60.18a1.53,1.53,0,0,1-1.73,1.73h-8.3q-1.61,0-1.61-1.73V238.6q0-1.73,1.61-1.73h8.3a1.53,1.53,0,0,1,1.73,1.73v14.12l.74-1a45.86,45.86,0,0,1,11.89-9.16,42.92,42.92,0,0,1,16.22-4.46l1.11-.12h4.33l1.11.13,1.24.12,1.11.13a39.38,39.38,0,0,1,8.79,2.23,41.27,41.27,0,0,1,15.6,10.15,40.31,40.31,0,0,1,9.66,15.85,41.06,41.06,0,0,1,2,8.91q.25,2.11.37,4.46v31.82q.12,16.34.12,27.24Z"/><path class="cls-3" d="M1832,329.12A52,52,0,0,1,1816.15,291q0-22.66,15.23-38.26t37-15.48q21.3.13,36.41,15.73a51.52,51.52,0,0,1,15,37.15v2.72a1.44,1.44,0,0,1-1.49,1.61l-88.91,7.8a42.17,42.17,0,0,0,76.28,11.27,1.52,1.52,0,0,1,2.35-.62l7.18,4.09a1.66,1.66,0,0,1,.62,2.48A53.8,53.8,0,0,1,1896.14,338a52.52,52.52,0,0,1-26.13,6.81A51.78,51.78,0,0,1,1832,329.12Zm7.55-68.35q-11.52,12-11.64,29.84l79.87-6.93q-1.74-15.35-12.75-25t-27-9.78Q1850.94,248.88,1839.55,260.77Z"/></svg>